<svg id="Layer_3" data-name="Layer 3" xmlns="http://www.w3.org/2000/svg" width="481.19" height="478.22" viewBox="0 0 481.19 478.22">
  <title>groundlay-1</title>
  <rect x="196.65" y="182.05" width="22.62" height="12.64" transform="translate(29.22 -27.93) rotate(8.26)" fill="#fff"/>
  <rect x="181.88" y="274.21" width="22.16" height="13.52" transform="translate(42.37 -24.81) rotate(8.26)" fill="#fff"/>
  <rect x="214.58" y="204.68" width="76.27" height="76.27" transform="translate(37.51 -33.79) rotate(8.26)" fill="#fff"/>
  <rect x="227.99" y="189.85" width="18.12" height="12.78" transform="translate(30.66 -32.03) rotate(8.26)" fill="#fff"/>
  <rect x="198.29" y="254.17" width="13.22" height="13.22" transform="translate(39.6 -26.74) rotate(8.26)" fill="#fff"/>
  <rect x="290.46" y="219.88" width="13.14" height="13.14" transform="translate(35.62 -40.33) rotate(8.26)" fill="#fff"/>
  <rect x="262" y="283.8" width="18.86" height="13.04" transform="translate(44.53 -35.99) rotate(8.26)" fill="#fff"/>
  <rect x="338.57" y="225.14" width="69.71" height="66.25" transform="translate(40.99 -50.98) rotate(8.26)" fill="#fff"/>
  <rect x="334.85" y="283.74" width="15.6" height="15.6" transform="translate(45.45 -46.21) rotate(8.26)" fill="#fff"/>
  <rect x="382.76" y="292.4" width="15.93" height="13.31" transform="translate(47.03 -53.04) rotate(8.26)" fill="#fff"/>
  <rect x="347.47" y="214.98" width="13.78" height="17.46" transform="matrix(0.99, 0.14, -0.14, 0.99, 35.82, -48.6)" fill="#fff"/>
  <rect x="394.63" y="222.48" width="14.56" height="10.15" transform="matrix(0.99, 0.14, -0.14, 0.99, 36.87, -55.39)" fill="#fff"/>
</svg>
